{"title":"Air 2015.WEBRiP.XViD.AC3.5.1.ReLeNTLesS","uid":12232891,"size":1217079261,"categoryP":"video","categoryS":"movies","magnet":"?xt=urn:btih:03ae73cfff6671da6e8fa20bc6b92cac7fe14837&amp;dn=Air+2015.WEBRiP.XViD.AC3.5.1.ReLeNTLesS&amp;tr=udp%3A%2F%2Ftracker.openbittorrent.com%3A80&amp;tr=udp%3A%2F%2Fopen.demonii.com%3A1337&amp;tr=udp%3A%2F%2Ftracker.coppersurfer.tk%3A6969&amp;tr=udp%3A%2F%2Fexodus.desync.com%3A6969","seeders":1,"leechers":0,"uploader":"TvTeam","files":4,"time":1439602200,"description":"------------------------------------------------------------------------\n\n &lt;a href=&quot; https://www.torrenting.com&quot; rel=&quot;nofollow&quot; target=&quot;_NEW&quot;&gt; https://www.torrenting.com&lt;/a&gt;\n\nSign up is OPEN - for time being. Come and have fun\n\n.......................................................................................................................P0STER\n[img]http://i.imgur.com/WmSEnxn.png[/img]\n\niMDB: http://www.imdb.com/title/tt2091478/\n\nGeneral\nComplete name               : Air 2015.WEBRiP.XViD.AC3.5.1.ReLeNTLesS.avi\nFormat                      : AVI\nFormat/Info                 : Audio Video Interleave\nFile size                   : 1.12 GiB\nDuration                    : 1h 34mn\nOverall bit rate            : 1 702 Kbps\n\nVideo\nID                          : 0\nFormat                      : MPEG-4 Visual\nFormat profile              : Advanced Simple@L5\nFormat settings, BVOP       : 1\nFormat settings, QPel       : No\nFormat settings, GMC        : No warppoints\nFormat settings, Matrix     : Default (H.263)\nMuxing mode                 : Packed bitstream\nCodec ID                    : XVID\nCodec ID/Hint               : XviD\nDuration                    : 1h 34mn\nBit rate                    : 1 503 Kbps\nWidth                       : 720 pixels\nHeight                      : 304 pixels\nDisplay aspect ratio        : 2.35:1\nFrame rate                  : 23.976 fps\nColor space                 : YUV\nChroma subsampling          : 4:2:0\nBit depth                   : 8 bits\nScan type                   : Progressive\nCompression mode            : Lossy\nBits/(Pixel*Frame)          : 0.286\nStream size                 : 1 015 MiB (88%)\nWriting library             : XviD 1.2.1 (UTC 2008-12-04)\n\nAudio\nID                          : 1\nFormat                      : AC-3\nFormat/Info                 : Audio Coding 3\nMode extension              : CM (complete main)\nFormat settings, Endianness : Big\nCodec ID                    : 2000\nDuration                    : 1h 34mn\nBit rate mode               : Constant\nBit rate                    : 192 Kbps\nChannel(s)                  : 6 channels\nChannel positions           : Front: L C R, Side: L R, LFE\nSampling rate               : 48.0 KHz\nCompression mode            : Lossy\nStream size                 : 130 MiB (11%)\nAlignment                   : Aligned on interleaves\nInterleave, duration        : 64 ms (1.53 video frames)\nInterleave, preload duratio : 192 ms\nTitle                       : Air 2015 ReLeNTLesS.audio.AC3.5.1. English_new\nSource                      : PLAYNOW Thanks\n\nPL0T\nIn the near future, breathable air is nonexistent and two engineers (Norman Reedus and Djimon Hounsou) \ntasked with guarding the last hope for mankind struggle to preserve their own lives while administering to their vital task at hand.\n\nCAST\nDirector: Christian Cantamessa\nWriters: Christian Cantamessa, Chris Pasetto\nStars: Norman Reedus, Djimon Hounsou, Sandrine Holt \n\nSCREENS\n[img]http://i.imgur.com/wP8NJmd.png[/img]\n[img]http://i.imgur.com/XHReqtx.png[/img]\n[img]http://i.imgur.com/WbEpLXU.png[/img]\n[img]http://i.imgur.com/s3rC8mf.png[/img]\n[img]http://i.imgur.com/8OfCCgA.png[/img]\n[img]http://i.imgur.com/zzXHAcX.png[/img]\n\nTRAiLER\n\nGREETZ\n\n\nHIVE-CM8, Blackjesus, M0RPH, M00SE, MiLLENiUM,\n\nMANiX, TiTAN, Anonymous, TuX, \n\nACAB, KingStoner, FooKas, 4PlayHD, \n\nGodFather, Cld.... \n\nKeep up the good work guyz","torrent":{"xt":"urn:btih:03ae73cfff6671da6e8fa20bc6b92cac7fe14837","amp;dn":"Air+2015.WEBRiP.XViD.AC3.5.1.ReLeNTLesS","amp;tr":["udp%3A%2F%2Ftracker.openbittorrent.com%3A80","udp%3A%2F%2Fopen.demonii.com%3A1337","udp%3A%2F%2Ftracker.coppersurfer.tk%3A6969","udp%3A%2F%2Fexodus.desync.com%3A6969"],"infoHash":"03ae73cfff6671da6e8fa20bc6b92cac7fe14837","infoHashBuffer":{"type":"Buffer","data":[3,174,115,207,255,102,113,218,110,143,162,11,198,185,44,172,127,225,72,55]},"announce":[],"urlList":[]}}